<svg xmlns="http://www.w3.org/2000/svg" viewBox="0 0 496.87 429.87"><defs><style>.cls-1{fill:#2c5799;stroke:#2c5799;stroke-miterlimit:10;}</style></defs><g id="Layer_2" data-name="Layer 2"><g id="Layer_2-2" data-name="Layer 2"><path class="cls-1" d="M385.89,358.31a7.5,7.5,0,0,1-7.5-7.5v-.09c0-19.22-6.67-70.23-68.46-128.79A110.54,110.54,0,0,1,385.1,31.28a110.46,110.46,0,0,1,76.8,190.63c-50.51,47.89-68.51,98-68.51,128.9A7.5,7.5,0,0,1,385.89,358.31Zm0-312h-.7a95.46,95.46,0,0,0-65,164.76c16.87,16,50.91,52.28,65.84,97,12.86-37.37,39.81-72.67,65.49-97A95.46,95.46,0,0,0,385.91,46.28Z"/><path class="cls-1" d="M385.9,177.73a35.67,35.67,0,1,1,35.67-35.67A35.71,35.71,0,0,1,385.9,177.73Zm0-56.33a20.67,20.67,0,1,0,20.67,20.66A20.69,20.69,0,0,0,385.9,121.4Z"/><path class="cls-1" d="M463.14,429.37H42.4A42,42,0,0,1,.5,387.47V42.4A42,42,0,0,1,42.4.5H67.12A7.5,7.5,0,0,1,74.62,8V353.07a7.49,7.49,0,0,1-7.5,7.5H42.4a26.9,26.9,0,0,0,0,53.8H455.64V252.72a7.5,7.5,0,0,1,15,0V421.87A7.5,7.5,0,0,1,463.14,429.37ZM42.4,15.5A26.93,26.93,0,0,0,15.5,42.4v313a41.73,41.73,0,0,1,26.9-9.8H59.62V15.5Z"/><path class="cls-1" d="M274.52,77.85H67.12a7.5,7.5,0,0,1,0-15h207.4a7.5,7.5,0,1,1,0,15Z"/><path class="cls-1" d="M164.18,267.13H98.05a7.5,7.5,0,0,1,0-15h58.63V164.2L96.59,117.38a7.5,7.5,0,0,1,9.21-11.83l63,49.07a7.52,7.52,0,0,1,2.89,5.92v99.09A7.5,7.5,0,0,1,164.18,267.13Z"/><path class="cls-1" d="M164.18,401a7.5,7.5,0,0,1-7.5-7.5v-94.1H98.05a7.5,7.5,0,0,1,0-15h66.13a7.5,7.5,0,0,1,7.5,7.5v101.6A7.5,7.5,0,0,1,164.18,401Z"/><path class="cls-1" d="M305.43,267.13H198.25a7.5,7.5,0,0,1-7.5-7.5v-92a7.5,7.5,0,0,1,7.5-7.5h51.56a7.5,7.5,0,0,1,0,15H205.75v77h99.68a7.5,7.5,0,0,1,0,15Z"/><path class="cls-1" d="M319.79,401a7.51,7.51,0,0,1-6.79-4.3l-45.92-97.3H205.75v94.1a7.5,7.5,0,0,1-15,0V291.93a7.5,7.5,0,0,1,7.5-7.5h73.58a7.5,7.5,0,0,1,6.79,4.3l47.95,101.6a7.5,7.5,0,0,1-6.78,10.7Z"/><path class="cls-1" d="M353.39,401a7.51,7.51,0,0,1-6.79-4.3l-48-101.6a7.5,7.5,0,0,1,6.78-10.7h24a7.5,7.5,0,0,1,0,15H317.27l42.9,90.9a7.5,7.5,0,0,1-3.59,10A7.41,7.41,0,0,1,353.39,401Z"/><path class="cls-1" d="M240.53,139H188.07a7.51,7.51,0,0,1-4.94-1.86l-34-29.84A7.5,7.5,0,1,1,159,96l31.91,28h49.63a7.5,7.5,0,0,1,0,15Z"/></g></g></svg>