<svg xmlns="http://www.w3.org/2000/svg" viewBox="0 0 501.32 435.69"><defs><style>.cls-1{fill:#2c5799;stroke:#2c5799;stroke-miterlimit:10;}</style></defs><g id="Layer_2" data-name="Layer 2"><g id="Layer_2-2" data-name="Layer 2"><path class="cls-1" d="M250.65,316.78a7.5,7.5,0,0,1-7.5-7.5v-.08c0-18.52-6.43-67.7-66-124.17A107,107,0,0,1,249.89.5h.78A106.91,106.91,0,0,1,357.58,107.42,106,106,0,0,1,324.22,185c-48.71,46.18-66.07,94.47-66.07,124.27A7.5,7.5,0,0,1,250.65,316.78Zm0-301.28H250a91.91,91.91,0,0,0-62.55,158.64c16.22,15.37,48.84,50.15,63.4,93.05,12.52-35.87,38.39-69.69,63-93.07A91.91,91.91,0,0,0,250.67,15.5Z"/><path class="cls-1" d="M250.66,361c-42.16,0-81.86-2.9-111.79-8.18-24.2-4.26-52-11.17-52-26.86,0-10.84,12.33-18.4,40-24.5,22-4.87,52.89-8.34,86.83-9.78a7.5,7.5,0,0,1,.64,15c-72.58,3.07-105.59,13.83-111.76,19.24,2.58,2.15,12.14,7.9,44.34,13.05,28.4,4.54,65.25,7,103.75,7,5.2,0,7.36,0,11.66-.13l2.21-.05h.15a7.5,7.5,0,0,1,.15,15l-2.2,0C258.22,361,256,361,250.66,361Z"/><path class="cls-1" d="M374.49,350.65A7.51,7.51,0,0,1,372.32,336l7-2.11.21-.06c12.67-3.41,17.5-6.44,19.21-7.88-6.23-5.48-39.84-16.37-113.83-19.32a7.5,7.5,0,0,1,.59-15c34.45,1.37,65.8,4.83,88.28,9.72,28.1,6.12,40.63,13.72,40.63,24.65,0,12.48-17.58,18.69-30.87,22.28l-6.9,2.08A7.74,7.74,0,0,1,374.49,350.65Zm25.12-23.76h0Z"/><path class="cls-1" d="M250.66,142.42a34.7,34.7,0,1,1,34.7-34.7A34.74,34.74,0,0,1,250.66,142.42Zm0-54.39a19.7,19.7,0,1,0,19.7,19.69A19.71,19.71,0,0,0,250.66,88Z"/><path class="cls-1" d="M60.68,287.79a36.48,36.48,0,1,1,36.48-36.47A36.51,36.51,0,0,1,60.68,287.79Zm0-58a21.48,21.48,0,1,0,21.48,21.48A21.5,21.5,0,0,0,60.68,229.84Z"/><path class="cls-1" d="M60.68,331.66a7.5,7.5,0,0,1-7.5-7.5V280.29a7.5,7.5,0,0,1,15,0v43.87A7.5,7.5,0,0,1,60.68,331.66Z"/><path class="cls-1" d="M321.1,391.33a36.48,36.48,0,1,1,36.48-36.48A36.53,36.53,0,0,1,321.1,391.33Zm0-58a21.48,21.48,0,1,0,21.48,21.48A21.51,21.51,0,0,0,321.1,333.37Z"/><path class="cls-1" d="M321.1,435.19a7.5,7.5,0,0,1-7.5-7.5V383.83a7.5,7.5,0,0,1,15,0v43.86A7.5,7.5,0,0,1,321.1,435.19Z"/><path class="cls-1" d="M444.9,290.79a36.48,36.48,0,1,1,36.47-36.47A36.51,36.51,0,0,1,444.9,290.79Zm0-58a21.48,21.48,0,1,0,21.47,21.48A21.5,21.5,0,0,0,444.9,232.84Z"/><path class="cls-1" d="M444.9,334.66a7.5,7.5,0,0,1-7.5-7.5V283.29a7.5,7.5,0,0,1,15,0v43.87A7.5,7.5,0,0,1,444.9,334.66Z"/><path class="cls-1" d="M250.66,413.26c-65.41,0-127-6.41-173.41-18.05C42.24,386.42.5,370.57.5,344.89c0-11.12,7.75-21.31,23-30.3a7.5,7.5,0,0,1,7.61,12.93c-10.08,5.93-15.63,12.1-15.63,17.37,0,22.29,89.46,53.37,235.16,53.37,13.81,0,27.65-.3,41.14-.88a7.5,7.5,0,1,1,.65,15C278.74,413,264.68,413.26,250.66,413.26Z"/><path class="cls-1" d="M349.88,408.5a7.5,7.5,0,0,1-.78-15c42.28-4.47,77.72-11.94,102.49-21.58,21.76-8.47,34.23-18.34,34.23-27.07,0-5.49-5.83-10.76-10.73-14.22a7.5,7.5,0,0,1,8.66-12.25c11.33,8,17.07,16.91,17.07,26.47,0,15.92-14.73,29.73-43.79,41.05-26,10.12-62.76,17.91-106.35,22.52C350.41,408.48,350.14,408.5,349.88,408.5Z"/></g></g></svg>